<mxfile host="65bd71144e">
    <diagram id="obe3UPEb6kdCsh-geAzq" name="Page-1">
        <mxGraphModel dx="920" dy="566" grid="1" gridSize="10" guides="1" tooltips="1" connect="1" arrows="1" fold="1" page="1" pageScale="1" pageWidth="850" pageHeight="1100" math="0" shadow="0">
            <root>
                <mxCell id="0"/>
                <mxCell id="1" parent="0"/>
                <mxCell id="3" value="User" style="swimlane;fontStyle=0;childLayout=stackLayout;horizontal=1;startSize=30;horizontalStack=0;resizeParent=1;resizeParentMax=0;resizeLast=0;collapsible=1;marginBottom=0;whiteSpace=wrap;html=1;" vertex="1" parent="1">
                    <mxGeometry x="80" y="120" width="140" height="210" as="geometry"/>
                </mxCell>
                <mxCell id="4" value="id (int)" style="text;strokeColor=none;fillColor=none;align=left;verticalAlign=middle;spacingLeft=4;spacingRight=4;overflow=hidden;points=[[0,0.5],[1,0.5]];portConstraint=eastwest;rotatable=0;whiteSpace=wrap;html=1;" vertex="1" parent="3">
                    <mxGeometry y="30" width="140" height="30" as="geometry"/>
                </mxCell>
                <mxCell id="5" value="name (str)" style="text;strokeColor=none;fillColor=none;align=left;verticalAlign=middle;spacingLeft=4;spacingRight=4;overflow=hidden;points=[[0,0.5],[1,0.5]];portConstraint=eastwest;rotatable=0;whiteSpace=wrap;html=1;" vertex="1" parent="3">
                    <mxGeometry y="60" width="140" height="30" as="geometry"/>
                </mxCell>
                <mxCell id="6" value="surname (str)" style="text;strokeColor=none;fillColor=none;align=left;verticalAlign=middle;spacingLeft=4;spacingRight=4;overflow=hidden;points=[[0,0.5],[1,0.5]];portConstraint=eastwest;rotatable=0;whiteSpace=wrap;html=1;" vertex="1" parent="3">
                    <mxGeometry y="90" width="140" height="30" as="geometry"/>
                </mxCell>
                <mxCell id="7" value="e-mail (str)" style="text;strokeColor=none;fillColor=none;align=left;verticalAlign=middle;spacingLeft=4;spacingRight=4;overflow=hidden;points=[[0,0.5],[1,0.5]];portConstraint=eastwest;rotatable=0;whiteSpace=wrap;html=1;" vertex="1" parent="3">
                    <mxGeometry y="120" width="140" height="30" as="geometry"/>
                </mxCell>
                <mxCell id="13" value="password (str)" style="text;strokeColor=none;fillColor=none;align=left;verticalAlign=middle;spacingLeft=4;spacingRight=4;overflow=hidden;points=[[0,0.5],[1,0.5]];portConstraint=eastwest;rotatable=0;whiteSpace=wrap;html=1;" vertex="1" parent="3">
                    <mxGeometry y="150" width="140" height="30" as="geometry"/>
                </mxCell>
                <mxCell id="14" value="active (bool)" style="text;strokeColor=none;fillColor=none;align=left;verticalAlign=middle;spacingLeft=4;spacingRight=4;overflow=hidden;points=[[0,0.5],[1,0.5]];portConstraint=eastwest;rotatable=0;whiteSpace=wrap;html=1;" vertex="1" parent="3">
                    <mxGeometry y="180" width="140" height="30" as="geometry"/>
                </mxCell>
                <mxCell id="16" value="Bank" style="swimlane;fontStyle=0;childLayout=stackLayout;horizontal=1;startSize=30;horizontalStack=0;resizeParent=1;resizeParentMax=0;resizeLast=0;collapsible=1;marginBottom=0;whiteSpace=wrap;html=1;" vertex="1" parent="1">
                    <mxGeometry x="80" y="360" width="140" height="270" as="geometry"/>
                </mxCell>
                <mxCell id="17" value="id (int)" style="text;strokeColor=none;fillColor=none;align=left;verticalAlign=middle;spacingLeft=4;spacingRight=4;overflow=hidden;points=[[0,0.5],[1,0.5]];portConstraint=eastwest;rotatable=0;whiteSpace=wrap;html=1;" vertex="1" parent="16">
                    <mxGeometry y="30" width="140" height="30" as="geometry"/>
                </mxCell>
                <mxCell id="23" value="idUser (int)" style="text;strokeColor=none;fillColor=none;align=left;verticalAlign=middle;spacingLeft=4;spacingRight=4;overflow=hidden;points=[[0,0.5],[1,0.5]];portConstraint=eastwest;rotatable=0;whiteSpace=wrap;html=1;" vertex="1" parent="16">
                    <mxGeometry y="60" width="140" height="30" as="geometry"/>
                </mxCell>
                <mxCell id="18" value="cardholder (str)" style="text;strokeColor=none;fillColor=none;align=left;verticalAlign=middle;spacingLeft=4;spacingRight=4;overflow=hidden;points=[[0,0.5],[1,0.5]];portConstraint=eastwest;rotatable=0;whiteSpace=wrap;html=1;" vertex="1" parent="16">
                    <mxGeometry y="90" width="140" height="30" as="geometry"/>
                </mxCell>
                <mxCell id="19" value="number (str)" style="text;strokeColor=none;fillColor=none;align=left;verticalAlign=middle;spacingLeft=4;spacingRight=4;overflow=hidden;points=[[0,0.5],[1,0.5]];portConstraint=eastwest;rotatable=0;whiteSpace=wrap;html=1;" vertex="1" parent="16">
                    <mxGeometry y="120" width="140" height="30" as="geometry"/>
                </mxCell>
                <mxCell id="20" value="fexcpiration (date)" style="text;strokeColor=none;fillColor=none;align=left;verticalAlign=middle;spacingLeft=4;spacingRight=4;overflow=hidden;points=[[0,0.5],[1,0.5]];portConstraint=eastwest;rotatable=0;whiteSpace=wrap;html=1;" vertex="1" parent="16">
                    <mxGeometry y="150" width="140" height="30" as="geometry"/>
                </mxCell>
                <mxCell id="21" value="cvv (str)" style="text;strokeColor=none;fillColor=none;align=left;verticalAlign=middle;spacingLeft=4;spacingRight=4;overflow=hidden;points=[[0,0.5],[1,0.5]];portConstraint=eastwest;rotatable=0;whiteSpace=wrap;html=1;" vertex="1" parent="16">
                    <mxGeometry y="180" width="140" height="30" as="geometry"/>
                </mxCell>
                <mxCell id="22" value="city (str)" style="text;strokeColor=none;fillColor=none;align=left;verticalAlign=middle;spacingLeft=4;spacingRight=4;overflow=hidden;points=[[0,0.5],[1,0.5]];portConstraint=eastwest;rotatable=0;whiteSpace=wrap;html=1;" vertex="1" parent="16">
                    <mxGeometry y="210" width="140" height="30" as="geometry"/>
                </mxCell>
                <mxCell id="24" value="codpost (str)" style="text;strokeColor=none;fillColor=none;align=left;verticalAlign=middle;spacingLeft=4;spacingRight=4;overflow=hidden;points=[[0,0.5],[1,0.5]];portConstraint=eastwest;rotatable=0;whiteSpace=wrap;html=1;" vertex="1" parent="16">
                    <mxGeometry y="240" width="140" height="30" as="geometry"/>
                </mxCell>
                <mxCell id="25" value="Producte" style="swimlane;fontStyle=0;childLayout=stackLayout;horizontal=1;startSize=30;horizontalStack=0;resizeParent=1;resizeParentMax=0;resizeLast=0;collapsible=1;marginBottom=0;whiteSpace=wrap;html=1;" vertex="1" parent="1">
                    <mxGeometry x="320" y="120" width="140" height="300" as="geometry"/>
                </mxCell>
                <mxCell id="26" value="id (int)" style="text;strokeColor=none;fillColor=none;align=left;verticalAlign=middle;spacingLeft=4;spacingRight=4;overflow=hidden;points=[[0,0.5],[1,0.5]];portConstraint=eastwest;rotatable=0;whiteSpace=wrap;html=1;" vertex="1" parent="25">
                    <mxGeometry y="30" width="140" height="30" as="geometry"/>
                </mxCell>
                <mxCell id="30" value="idCateg (int)" style="text;strokeColor=none;fillColor=none;align=left;verticalAlign=middle;spacingLeft=4;spacingRight=4;overflow=hidden;points=[[0,0.5],[1,0.5]];portConstraint=eastwest;rotatable=0;whiteSpace=wrap;html=1;" vertex="1" parent="25">
                    <mxGeometry y="60" width="140" height="30" as="geometry"/>
                </mxCell>
                <mxCell id="29" value="imgURL (str)" style="text;strokeColor=none;fillColor=none;align=left;verticalAlign=middle;spacingLeft=4;spacingRight=4;overflow=hidden;points=[[0,0.5],[1,0.5]];portConstraint=eastwest;rotatable=0;whiteSpace=wrap;html=1;" vertex="1" parent="25">
                    <mxGeometry y="90" width="140" height="30" as="geometry"/>
                </mxCell>
                <mxCell id="27" value="name (str)" style="text;strokeColor=none;fillColor=none;align=left;verticalAlign=middle;spacingLeft=4;spacingRight=4;overflow=hidden;points=[[0,0.5],[1,0.5]];portConstraint=eastwest;rotatable=0;whiteSpace=wrap;html=1;" vertex="1" parent="25">
                    <mxGeometry y="120" width="140" height="30" as="geometry"/>
                </mxCell>
                <mxCell id="28" value="desc (str)" style="text;strokeColor=none;fillColor=none;align=left;verticalAlign=middle;spacingLeft=4;spacingRight=4;overflow=hidden;points=[[0,0.5],[1,0.5]];portConstraint=eastwest;rotatable=0;whiteSpace=wrap;html=1;" vertex="1" parent="25">
                    <mxGeometry y="150" width="140" height="30" as="geometry"/>
                </mxCell>
                <mxCell id="32" value="price (float)" style="text;strokeColor=none;fillColor=none;align=left;verticalAlign=middle;spacingLeft=4;spacingRight=4;overflow=hidden;points=[[0,0.5],[1,0.5]];portConstraint=eastwest;rotatable=0;whiteSpace=wrap;html=1;" vertex="1" parent="25">
                    <mxGeometry y="180" width="140" height="30" as="geometry"/>
                </mxCell>
                <mxCell id="33" value="dto (int)" style="text;strokeColor=none;fillColor=none;align=left;verticalAlign=middle;spacingLeft=4;spacingRight=4;overflow=hidden;points=[[0,0.5],[1,0.5]];portConstraint=eastwest;rotatable=0;whiteSpace=wrap;html=1;" vertex="1" parent="25">
                    <mxGeometry y="210" width="140" height="30" as="geometry"/>
                </mxCell>
                <mxCell id="34" value="cant (int)" style="text;strokeColor=none;fillColor=none;align=left;verticalAlign=middle;spacingLeft=4;spacingRight=4;overflow=hidden;points=[[0,0.5],[1,0.5]];portConstraint=eastwest;rotatable=0;whiteSpace=wrap;html=1;" vertex="1" parent="25">
                    <mxGeometry y="240" width="140" height="30" as="geometry"/>
                </mxCell>
                <mxCell id="31" value="active (bool)" style="text;strokeColor=none;fillColor=none;align=left;verticalAlign=middle;spacingLeft=4;spacingRight=4;overflow=hidden;points=[[0,0.5],[1,0.5]];portConstraint=eastwest;rotatable=0;whiteSpace=wrap;html=1;" vertex="1" parent="25">
                    <mxGeometry y="270" width="140" height="30" as="geometry"/>
                </mxCell>
                <mxCell id="35" value="Categoria" style="swimlane;fontStyle=0;childLayout=stackLayout;horizontal=1;startSize=30;horizontalStack=0;resizeParent=1;resizeParentMax=0;resizeLast=0;collapsible=1;marginBottom=0;whiteSpace=wrap;html=1;" vertex="1" parent="1">
                    <mxGeometry x="520" y="120" width="140" height="120" as="geometry"/>
                </mxCell>
                <mxCell id="36" value="id (int)" style="text;strokeColor=none;fillColor=none;align=left;verticalAlign=middle;spacingLeft=4;spacingRight=4;overflow=hidden;points=[[0,0.5],[1,0.5]];portConstraint=eastwest;rotatable=0;whiteSpace=wrap;html=1;" vertex="1" parent="35">
                    <mxGeometry y="30" width="140" height="30" as="geometry"/>
                </mxCell>
                <mxCell id="39" value="name (str)" style="text;strokeColor=none;fillColor=none;align=left;verticalAlign=middle;spacingLeft=4;spacingRight=4;overflow=hidden;points=[[0,0.5],[1,0.5]];portConstraint=eastwest;rotatable=0;whiteSpace=wrap;html=1;" vertex="1" parent="35">
                    <mxGeometry y="60" width="140" height="30" as="geometry"/>
                </mxCell>
                <mxCell id="40" value="desc (str)" style="text;strokeColor=none;fillColor=none;align=left;verticalAlign=middle;spacingLeft=4;spacingRight=4;overflow=hidden;points=[[0,0.5],[1,0.5]];portConstraint=eastwest;rotatable=0;whiteSpace=wrap;html=1;" vertex="1" parent="35">
                    <mxGeometry y="90" width="140" height="30" as="geometry"/>
                </mxCell>
                <mxCell id="46" style="edgeStyle=none;html=1;entryX=1;entryY=0.5;entryDx=0;entryDy=0;exitX=0;exitY=0.5;exitDx=0;exitDy=0;" edge="1" parent="1" source="36" target="30">
                    <mxGeometry relative="1" as="geometry"/>
                </mxCell>
                <mxCell id="47" style="edgeStyle=orthogonalEdgeStyle;curved=1;html=1;exitX=0;exitY=0.5;exitDx=0;exitDy=0;entryX=0;entryY=0.5;entryDx=0;entryDy=0;" edge="1" parent="1" source="4" target="23">
                    <mxGeometry relative="1" as="geometry">
                        <Array as="points">
                            <mxPoint x="30" y="165"/>
                            <mxPoint x="30" y="435"/>
                        </Array>
                    </mxGeometry>
                </mxCell>
            </root>
        </mxGraphModel>
    </diagram>
</mxfile>
